<?xml version="1.0" encoding="utf-8"?>
<!-- Generator: Adobe Illustrator 19.0.0, SVG Export Plug-In . SVG Version: 6.00 Build 0)  -->
<svg version="1.1" id="Layer_1" xmlns="http://www.w3.org/2000/svg" xmlns:xlink="http://www.w3.org/1999/xlink" x="0px" y="0px"
	 viewBox="0 0 1080 1080" style="enable-background:new 0 0 1080 1080;" xml:space="preserve">
<style type="text/css">
	.st0{fill:none;stroke:#AAAAAA;stroke-width:50;stroke-miterlimit:10;}
	.st1{fill:#DDDDDD;}
	.st2{fill:#FFFFFF;}
</style>
<g>
	<g>
		
			<image style="overflow:visible;opacity:0.75;enable-background:new    ;" width="786" height="473" xlink:href="6B81E6ECCD238F4B.png"  transform="matrix(1 0 0 1 149 71)">
		</image>
		<g>
			<path class="st0" d="M183,524.7c0-572,718-572,718,0"/>
		</g>
	</g>
	<g>
		
			<image style="overflow:visible;opacity:0.75;enable-background:new    ;" width="834" height="549" xlink:href="6B81E6ECCD238F49.png"  transform="matrix(1 0 0 1 123 455)">
		</image>
		<g>
			<path class="st1" d="M171.6,984.3h736.9c21.6,0,39.1-17.7,39.1-39.5v-451c0-21.8-17.5-39.5-39.1-39.5H171.6
				c-21.6,0-39.1,17.7-39.1,39.5v451C132.5,966.7,150,984.3,171.6,984.3z"/>
		</g>
	</g>
	<g>
		<path class="st2" d="M229.6,751.5c0-5-1.8-8.9-5.3-11.6c-3.6-2.7-10-5.5-19.2-8.5s-16.6-5.9-22-8.8c-14.7-7.9-22-18.6-22-32.1
			c0-7,2-13.2,5.9-18.7s9.6-9.8,17-12.8c7.4-3.1,15.7-4.6,24.8-4.6c9.2,0,17.5,1.7,24.7,5s12.8,8.1,16.8,14.2c4,6.1,6,13,6,20.8
			h-26.7c0-5.9-1.9-10.5-5.6-13.8c-3.7-3.3-9-4.9-15.7-4.9c-6.5,0-11.6,1.4-15.2,4.1c-3.6,2.8-5.4,6.4-5.4,10.9
			c0,4.2,2.1,7.7,6.4,10.6c4.2,2.8,10.5,5.5,18.7,8c15.2,4.6,26.2,10.2,33.1,17s10.4,15.2,10.4,25.2c0,11.2-4.2,20-12.7,26.3
			c-8.5,6.4-19.9,9.6-34.2,9.6c-10,0-19-1.8-27.2-5.5c-8.2-3.6-14.4-8.6-18.7-15c-4.3-6.3-6.4-13.7-6.4-22h26.7
			c0,14.3,8.5,21.4,25.6,21.4c6.3,0,11.3-1.3,14.8-3.9C227.9,759.7,229.6,756.1,229.6,751.5z"/>
		<path class="st2" d="M352.3,729.1h-51.2V764h60.1v21.4h-86.7V656H361v21.6h-59.9v30.8h51.2L352.3,729.1L352.3,729.1z"/>
		<path class="st2" d="M478.4,742.3c-1,13.9-6.1,24.9-15.4,32.9s-21.5,12-36.7,12c-16.6,0-29.6-5.6-39.1-16.8s-14.3-26.5-14.3-46
			v-7.9c0-12.4,2.2-23.4,6.6-32.9s10.6-16.8,18.8-21.8c8.1-5.1,17.6-7.6,28.4-7.6c14.9,0,27,4,36.1,12s14.4,19.2,15.8,33.7h-26.7
			c-0.7-8.4-3-14.4-7-18.2s-10.1-5.6-18.3-5.6c-8.9,0-15.5,3.2-20,9.6c-4.4,6.4-6.7,16.2-6.8,29.6v9.8c0,14,2.1,24.2,6.4,30.7
			c4.2,6.5,10.9,9.7,20,9.7c8.2,0,14.4-1.9,18.4-5.6c4.1-3.8,6.4-9.6,7-17.5h26.8V742.3z"/>
		<path class="st2" d="M593.8,656v85.2c0,14.2-4.4,25.4-13.3,33.6c-8.9,8.2-21,12.4-36.3,12.4c-15.1,0-27.1-4-36-12
			s-13.4-19-13.6-33V656h26.7v85.4c0,8.5,2,14.6,6.1,18.5s9.7,5.8,16.8,5.8c15,0,22.6-7.9,22.8-23.6V656H593.8z"/>
		<path class="st2" d="M663.6,738h-21.2v47.4h-26.7V656h48.1c15.3,0,27.1,3.4,35.4,10.2c8.3,6.8,12.4,16.4,12.4,28.9
			c0,8.8-1.9,16.2-5.7,22.1c-3.8,5.9-9.6,10.6-17.4,14.1l28,52.9v1.2h-28.6L663.6,738z M642.3,716.4h21.5c6.7,0,11.9-1.7,15.6-5.1
			c3.7-3.4,5.5-8.1,5.5-14.1c0-6.1-1.7-10.9-5.2-14.4s-8.8-5.2-16-5.2h-21.4L642.3,716.4L642.3,716.4z"/>
		<path class="st2" d="M809.7,729.1h-51.2V764h60.1v21.4h-86.7V656h86.6v21.6h-59.9v30.8h51.2L809.7,729.1L809.7,729.1z"/>
		<path class="st2" d="M834.2,785.4V656H874c11.4,0,21.6,2.6,30.5,7.7c9,5.1,16,12.4,21,21.9s7.6,20.2,7.6,32.2v6
			c0,12-2.5,22.7-7.4,32.1c-4.9,9.4-11.9,16.6-20.9,21.8s-19.2,7.8-30.5,7.8L834.2,785.4L834.2,785.4z M860.9,677.6V764h12.9
			c10.4,0,18.4-3.4,23.9-10.2s8.3-16.6,8.4-29.2v-6.8c0-13.2-2.7-23.1-8.2-29.9c-5.5-6.8-13.4-10.2-23.9-10.2L860.9,677.6
			L860.9,677.6z"/>
	</g>
</g>
</svg>
